<svg id="Layer_1" data-name="Layer 1" xmlns="http://www.w3.org/2000/svg" viewBox="0 0 1000 514.48"><defs><style>.cls-1{fill:#fff;}.cls-2{fill:#613f75;}.cls-3{fill:#e4c2d0;}.cls-4{fill:#7d81b7;}</style></defs><g id="homera_logo" data-name="homera logo"><path class="cls-1" d="M29.46,481.45V350H51.9v49.7h71.83v-50h22.44V481.13H123.73V419.57H51.9v61.56H29.46Z"/><path class="cls-1" d="M253.27,346.46c41.36,0,74.39,31.1,74.39,69.58,0,39.12-33,70.22-74.39,70.22s-73.75-31.1-73.75-70.22C179.52,377.56,211.9,346.46,253.27,346.46Zm0,119.6a49.7,49.7,0,1,0-49.7-49.7A49.54,49.54,0,0,0,253.27,466.06Z"/><path class="cls-1" d="M476.11,482.09V392.63h-1l-43.61,73.75H428l-43.61-73.75h-1v89.46H362V350.63h23.09l45.85,77.59h.32l45.85-77.59H499.2V482.09Z"/><path class="cls-1" d="M617.51,423.42H566.85v38.47H656v20.2H544.41V350.63H651.18v20.2H566.85v32.71h50.66Z"/><path class="cls-1" d="M688.06,482.09V350.63h72.46c17.64,0,29.5,4.81,38.16,13.79a38.52,38.52,0,0,1,10.58,26.29c0,17.64-11.55,31.1-29.18,37.51l31.42,53.55h-26l-28.22-50.66H710.5v50.66ZM710.5,370.51v40.72h53.87a21.86,21.86,0,0,0,22.12-20.52A18.71,18.71,0,0,0,781,377.56c-6.09-6.41-13.47-7.05-20.52-7.05Z"/><path class="cls-1" d="M889.1,350.31h20.52l60.92,131.46H945.85l-16-35.59H867.29l-15.71,35.59H827.86Zm-13.79,78.24H921.8l-22.44-51h-1.28Z"/><path class="cls-1" d="M253.59,430.15a13.79,13.79,0,1,1,13.79-13.79h0A13.69,13.69,0,0,1,253.59,430.15Zm0-24a10.42,10.42,0,1,0,10.58,10.58,10.4,10.4,0,0,0-10.58-10.58Z"/></g><g id="cube"><path class="cls-2" d="M588,102.25v101.2l-87.58,50.74V284.9l114.15-66.23V87Z"/><path class="cls-3" d="M386.1,87V218.67L500.39,284.9V254.19l-87.72-50.74V102.25Z"/><path class="cls-4" d="M614.54,87,500.32,21.8,386.1,87l26.57,15.22,87.65-50.6L588,102.25Z"/><polygon class="cls-3" points="587.97 203.45 587.97 102.25 500.32 51.65 500.32 152.85 587.97 203.45"/><polygon class="cls-4" points="412.67 203.45 500.32 152.85 587.97 203.45 500.39 254.19 412.67 203.45"/><polygon class="cls-2" points="500.32 51.65 500.32 152.85 412.67 203.45 412.54 102.25 500.32 51.65"/></g></svg>