<?xml version="1.0" encoding="utf-8"?>
<!-- Generator: Adobe Illustrator 26.0.3, SVG Export Plug-In . SVG Version: 6.00 Build 0)  -->
<svg version="1.1" id="Layer_1" xmlns="http://www.w3.org/2000/svg" xmlns:xlink="http://www.w3.org/1999/xlink" x="0px" y="0px"
	 viewBox="0 0 1575.6 1874" style="enable-background:new 0 0 1575.6 1874;" xml:space="preserve">
<style type="text/css">
	.st0{fill:none;stroke:#808080;stroke-width:4;stroke-miterlimit:10;}
</style>
<g id="Layer_2_00000137134236022909266050000013118385639688467344_">
	<g id="Layer_1-2">
		<path class="st0" d="M773.2,951.6H434.1c0,0-27.1,0-27.1,27.1s27.1,27.1,27.1,27.1h542.6c0,0,27.1,0,27.1,27.1
			c0,27.1-27.1,27.1-27.1,27.1H379.8c0,0-27.1,3.4-27.1,27.1s27,27.1,27,27.1h298.5c54.3,0,54.3,54.3,54.3,54.3v596.9
			c0,54.3-54.3,54.3-54.3,54.3H108.5c-57.7,0-54.3-54.3-54.3-54.3v-488.3c0-54.3,54.3-54.3,54.3-54.3h461.2
			c54.3,0,54.3,54.3,54.3,54.3V1657c0,54.3-54.3,54.3-54.3,54.3H217c-54.3,0-54.3-54.3-54.3-54.3v-271.3c0-54.3,54.3-54.3,54.3-54.3
			h244.2c54.3,0,54.3,54.3,54.3,54.3v162.8c0,54.3-54.3,54.3-54.3,54.3H325.6c-54.3,0-54.3-54.3-54.3-54.3v-54.3
			c0-54.3,54.3-54.3,54.3-54.3h54.3c0,0,27.1,0,27.1,27.1s-27.1,27.1-27.1,27.1h-27.1c-27.1,0-27.1,27.1-27.1,27.1s0,27.1,27.1,27.1
			H407c0,0,54.3,0,54.3-54.3v-54.3c0,0,0-54.3-54.3-54.3H271.3c0,0-54.3,0-54.3,54.3v162.8c0,0,0,54.3,54.3,54.3h244.2
			c0,0,54.3,0,54.3-54.3v-271.3c0,0,0-54.3-54.3-54.3H162.8c0,0-54.3,0-54.3,54.3v379.8c0,0,0,54.3,54.3,54.3H624
			c0,0,54.3,0,54.3-54.3v-488.3c0,0,0-54.3-54.3-54.3H325.6c0,0-27.1,0-27.1-27.1v-50.9c0,0,0-27.1-27.1-27.1s-27.1,27.1-27.1,27.1
			v50.9c0,0,0,27.1-27.1,27.1s-27.1-27.1-27.1-27.1v-50.9c0,0,0-27.1-27.1-27.1s-27.1,27.1-27.1,27.1v50.9c0,0,0,27.1-27.1,27.1
			s-27.1-27.1-27.1-27.1v-50.9c0,0,0-27.1-27.1-27.1s-27.1,27.1-27.1,27.1v50.9c0,0,0,27.5-27.1,27.5"/>
		<path class="st0" d="M1518.9,1874c0-54.3-57.3-54.3-57.3-54.3h-50.9c-54.3,0-54.3-54.3-54.3-54.3v-54.3c0-61,54.3-54.3,54.3-54.3
			h54.2c54.3,0,54.3-54.3,54.3-54.3v-542.6c0-108.5-108.5-108.5-108.5-108.5h-81.4c-27.1,0-54.3,27.1-54.3,27.1l-162.8,162.8
			c-27.1,27.1-54.3,27.1-54.3,27.1H922.4c-54.3,0-54.3,54.3-54.3,54.3v488.3c0,50.9,54.3,54.3,54.3,54.3h271.3
			c54.3,0,54.3-54.3,54.3-54.3v-108.5c0-54.3,54.3-54.3,54.3-54.3h54.3c54.3,0,54.3-54.3,54.3-54.3v-352.7c0,0,0-27.1-27.1-27.1
			s-27.1,27.1-27.1,27.1v189.9c0,54.3-54.3,54.3-54.3,54.3h-189.9c-27.1,0-27.1,27.1-27.1,27.1v162.8c0,0,0,27.1-27.1,27.1
			s-27.1-27.1-27.1-27.1v-217c0,0,0-27.1,27.1-27.1h217c0,0,27.1,0,27.1-27.1v-81.4c0,0,0-27.1-27.1-27.1c0,0-27.1,0-27.1,27.1v27.1
			c0,0,0,27.1-27.1,27.1H1031c0,0-54.3,0-54.3,54.3v271.3c0,0-3.4,54.3,54.3,54.3h54.3c0,0,54.3,0,54.3-54.3v-108.6
			c0,0,0-54.3,54.3-54.3h135.7c0,0,27.1,0,27.1,27.1c0,0,3.4,27.1-27.1,27.1H1248c0,0-54.3,0-54.3,54.3V1657c0,0,6.8,54.3-54.3,54.3
			H976.7c0,0-54.3,0-54.3-54.3v-379.9c0,0,0-54.3,54.3-54.3h135.6c0,0,27.1,0,54.3-27.1l135.7-135.7c27.1-27.1,81.4-27.1,81.4-27.1
			s81.4,0,81.4,81.4v434.1c0,0,0,54.3-54.3,54.3h-54.3c0,0-54.3,0-54.3,54.3v108.5c0,0,0,54.3-54.3,54.3H868.2c0,0-54.3,0-54.3-54.3
			v-596.9c0,0,0-54.3,54.3-54.3h135.7c0,0,27.1,0,54.3-27.1l166.2-162.8c0,0,27.1-27.1,54.3-27.1l210.3,0.1c0,0,27.1-0.1,27.1,27
			s27.5,27.1,27.5,27.1"/>
		<path class="st0" d="M773.2,951.6h339.1c0,0,27.1,0,27.1-27.1s-27.1-27.1-27.1-27.1H569.7c0,0-27.1,0-27.1-27.1
			s27.1-27.2,27.1-27.2h596.9c0,0,27.1-3.4,27.1-27.1s-27.1-27.1-27.1-27.1H868.2c-54.3,0-54.3-54.3-54.3-54.3V137.6
			c0-54.3,54.3-54.3,54.3-54.3h569.7c57.7,0,54.3,54.3,54.3,54.3V626c0,54.3-54.3,54.3-54.3,54.3H976.7c-54.3,0-54.3-54.3-54.3-54.3
			V246.2c0-54.3,54.3-54.3,54.3-54.3h352.7c54.3,0,54.3,54.3,54.3,54.3v271.3c0,54.3-54.3,54.3-54.3,54.3h-244.2
			c-54.3,0-54.3-54.3-54.3-54.3V354.7c0-54.3,54.3-54.3,54.3-54.3h135.7c54.3,0,54.3,54.3,54.3,54.3V409c0,54.3-54.3,54.3-54.3,54.3
			h-54.3c0,0-27.1,0-27.1-27.1s27.1-27.1,27.1-27.1h27.1c27.1,0,27.1-27.1,27.1-27.1s0-27.1-27.1-27.1h-54.3c0,0-54.3,0-54.3,54.3
			v54.3c0,0,0,54.3,54.3,54.3h135.7c0,0,54.3,0,54.3-54.3V300.4c0,0,0-54.3-54.3-54.3H1031c0,0-54.3,0-54.3,54.3v271.3
			c0,0,0,54.3,54.3,54.3h352.7c0,0,54.3,0,54.3-54.3V191.9c0,0,0-54.3-54.3-54.3H922.4c0,0-54.3,0-54.3,54.3v488.4
			c0,0,0,54.3,54.3,54.3h298.4c0,0,27.1,0,27.1,27.1v50.9c0,0,0,27.1,27.1,27.1s27.1-27.1,27.1-27.1v-50.9c0,0,0-27.1,27.1-27.1
			s27.1,27.1,27.1,27.1v50.9c0,0,0,27.1,27.1,27.1s27.1-27.1,27.1-27.1v-50.9c0,0,0-27.1,27.1-27.1s27.1,27.1,27.1,27.1v50.9
			c0,0,0,27.1,27.1,27.1s27.1-27.1,27.1-27.1v-50.9c0,0,0-27.5,27.1-27.5c0,0,27.1,0.4,27.1-26.7V56.3c0,0,0-54.3-54.2-54.3H81.4"/>
		<path class="st0" d="M27.5,29.1c0,54.3,57.3,54.3,57.3,54.3h50.9c54.3,0,54.3,54.3,54.3,54.3v54.3c0,61.1-54.3,54.3-54.3,54.3
			H81.4c-54.3,0-54.3,54.3-54.3,54.3V843c0,108.5,108.5,108.5,108.5,108.5H217c27.1,0,54.3-27.1,54.3-27.1l162.8-162.7
			c27.1-27.1,54.3-27.1,54.3-27.1H624c54.3,0,54.3-54.3,54.3-54.3V191.9c0-50.9-54.3-54.3-54.3-54.3H352.7
			c-54.3,0-54.3,54.3-54.3,54.3v108.5c0,54.3-54.3,54.3-54.3,54.3h-54.3c-54.3,0-54.3,54.3-54.3,54.3v352.7c0,0,0,27.1,27.1,27.1
			s27.1-27.1,27.1-27.1V571.7c0-54.3,54.3-54.3,54.3-54.3h189.9c27.1,0,27.1-27.1,27.1-27.1V327.6c0,0,0-27.1,27.1-27.1
			c27.1,0,27.1,27.1,27.1,27.1v217c0,0,0,27.1-27.1,27.1h-217c0,0-27.1,0-27.1,27.1v81.4c0,0,0,27.1,27.1,27.1c0,0,27.1,0,27.1-27.1
			v-27.1c0,0,0-27.1,27.1-27.1h189.9c0,0,54.3,0,54.3-54.3V300.4c0,0,3.4-54.3-54.3-54.3h-54.3c0,0-54.3,0-54.3,54.3V409
			c0,0,0,54.3-54.3,54.3H217c0,0-27.1,0-27.1-27.1c0,0-3.4-27.1,27.1-27.1h81.4c0,0,54.3,0,54.3-54.3V246.2c0,0-6.8-54.3,54.3-54.3
			h162.8c0,0,54.3,0,54.3,54.3V626c0,0,0,54.3-54.3,54.3H434.1c0,0-27.1,0-54.3,27.1L244.2,843c-27.1,27.1-81.4,27.1-81.4,27.1
			s-81.4,0-81.4-81.4v-434c0,0,0-54.3,54.3-54.3h54.3c0,0,54.3,0,54.3-54.3V137.6c0,0,0-54.3,54.3-54.3h379.8c0,0,54.3,0,54.3,54.3
			v596.9c0,0,0,54.3-54.3,54.3H542.6c0,0-27.1,0-54.3,27.1L322.2,978.7c0,0-27.1,27.1-54.3,27.1l-210.3-0.1c0,0-27.1,0.1-27.1-27
			S3,951.6,3,951.6"/>
		<path class="st0" d="M1546.4,951.6c0,0,27.1,0,27.1,27.1s-0.4,895.3-0.4,895.3"/>
	</g>
</g>
</svg>
