<svg id="Layer_1" data-name="Layer 1" xmlns="http://www.w3.org/2000/svg" viewBox="0 0 1429.04 1000"><defs><style>.cls-1{fill:#fff;}</style></defs><path class="cls-1" d="M341.51,357c0,63.38-28.16,107.64-152.4,107.64-122.73,0-150.9-44.26-150.9-107.64V275.47c0-16.6,7-23.14,23.14-23.14h72.93c16.1,0,23.14,6.54,23.14,23.14v61.36c0,11.57,6,18.61,30.68,18.61,23.14,0,28.17-7,28.17-18.61V108c0-16.09,7-23.14,23.14-23.14h79c16.09,0,23.13,7,23.13,23.14Zm-5-249c0-12.57-5.54-18.11-18.11-18.11h-79c-12.58,0-18.11,5.54-18.11,18.11V336.83c0,13.59-4,23.64-33.2,23.64-31.18,0-35.71-10.05-35.71-23.64V275.47c0-13.08-5.53-18.11-18.11-18.11H61.35c-12.58,0-18.11,5-18.11,18.11V357c0,61.37,28.67,102.61,145.87,102.61,118.2,0,147.38-41.24,147.38-102.61Zm-55.33,27.16V344.88c0,39.74-19.62,67.91-91,67.91-75.45,0-94.57-27.67-94.57-67.91V305.14h5v39.74c0,38.23,20.12,62.88,89.54,62.88,66.39,0,86-25.15,86-62.88V135.13Z"/><path class="cls-1" d="M716.73,357c0,63.38-29.68,107.64-160.46,107.64S395.82,420.33,395.82,357V108c0-16.09,7-23.14,23.14-23.14h79c16.09,0,23.13,7,23.13,23.14V337.34c0,12.07,8.56,18.61,36.22,18.61,28.17,0,36.72-6.54,36.72-18.61V108c0-16.09,6.54-23.14,23.14-23.14h76.45c16.1,0,23.14,7,23.14,23.14Zm-5-249c0-12.57-5.53-18.11-18.11-18.11H617.14C604.06,89.86,599,95.4,599,108V337.34c0,13.58-6,23.64-41.75,23.64C522.07,361,516,350.92,516,337.34V108c0-12.57-5.54-18.11-18.11-18.11H419c-12.58,0-18.11,5.54-18.11,18.11V357c0,61.37,30.68,102.61,155.42,102.61S711.7,418.32,711.7,357ZM461.21,135.13V344.88c0,37.73,20.62,62.88,95.57,62.88s96.07-25.15,96.07-62.88V135.13h5V344.88c0,40.74-22.13,67.91-101.1,67.91s-100.6-27.17-100.6-67.91V135.13Z"/><path class="cls-1" d="M946.57,457.05H787.63c-16.1,0-23.14-7-23.14-23.14V375.06c0-16.09,7-23.14,23.14-23.14h135.3c5.54,0,8.05-4.52,8.05-9.55,0-7.55-2.51-11.57-8.55-12.07L847,319.73c-50.29-7.54-82.49-29.17-82.49-88.52V178.39c0-60.36,40.24-93.56,109.15-93.56h140.84c16.1,0,23.14,7,23.14,23.14v59.86c0,16.09-7,23.14-23.14,23.14H897.28c-5.53,0-8.55,4.52-8.55,10.06,0,6,3,10.56,9,11.06l75,10.06c50.3,7.55,83,29.17,83,88.53v52.81C1055.73,423.85,1015,457.05,946.57,457.05Zm104.12-93.56V310.68c0-56.34-31.18-76.46-78.46-83.5l-75-10.06c-8.55-1-13.58-7-13.58-16.09s5-15.09,13.58-15.09h117.2c12.57,0,18.11-5.54,18.11-18.11V108c0-12.57-5.54-18.11-18.11-18.11H873.64c-65.39,0-104.12,31.19-104.12,88.53v52.82c0,56.33,30.68,76.45,78,83.49l75.44,10.57c8.55,1,13.08,5.53,13.08,17.1,0,8.05-4.53,14.58-13.08,14.58H787.63c-12.57,0-18.11,5.54-18.11,18.11v58.85c0,12.58,5.54,18.11,18.11,18.11H946.57C1011.46,452,1050.69,420.83,1050.69,363.49ZM987.32,140.16H875.65c-28.16,0-46.27,17.11-46.27,40.75v41.24c0,23.64,10.06,30.69,25.65,33.7l106.13,21.63c20.12,4,34.71,14.08,34.71,49.29V356c0,29.67-21.63,50.8-55.83,50.8H814.79v-5H940c31.18,0,50.8-19.11,50.8-45.77V326.77c0-31.68-12.07-40.24-30.68-44.26L854,260.88c-17.61-3.52-29.68-11.06-29.68-38.73V180.91c0-26.66,20.12-45.78,51.3-45.78H987.32Z"/><path class="cls-1" d="M1166.88,433.91V192H1098c-16.1,0-23.14-7-23.14-23.13V108c0-16.09,7-23.14,23.14-23.14h265.58c16.09,0,23.14,7,23.14,23.14v60.87c0,16.09-7,23.13-23.14,23.13h-68.92V433.91c0,16.1-7,23.14-23.13,23.14H1190C1173.92,457.05,1166.88,450,1166.88,433.91Zm122.73,0v-247h73.94c12.57,0,18.1-5.53,18.1-18.1V108c0-12.57-5.53-18.11-18.1-18.11H1098c-12.58,0-18.11,5.54-18.11,18.11v60.87c0,12.57,5.53,18.1,18.11,18.1h73.94v247c0,12.58,5.53,18.11,18.1,18.11h81.49C1284.07,452,1289.61,446.49,1289.61,433.91Zm-61.37-293.75H1125.13v-5h211.26v5H1233.27V406.75h-5Z"/><path class="cls-1" d="M44.22,521.61H86.47v84.91c0,13.3,7.44,20,19.57,20,11.93,0,19.56-6.65,19.56-20V521.61h42.25v87.45c0,32.08-24.84,54.78-62.21,54.78s-61.42-22.7-61.42-54.78Z"/><path class="cls-1" d="M190.53,521.61h40.3l34.43,57.32a129.19,129.19,0,0,1,10,21.33H276s-1.56-12.52-1.56-21.33V521.61h40.89V661.49H274.26l-34.63-60.06c-5.08-8.41-10-21.13-10-21.13h-.78a207.5,207.5,0,0,1,1.57,21.13v60.06H190.53Z"/><path class="cls-1" d="M339.58,521.61h56.73c43.24,0,70.82,25.63,70.82,69.65s-27.58,70.23-70.82,70.23H339.58Zm54,105.45c19,0,30.12-12.13,30.12-35.8C423.7,567.78,412,556,393.58,556H381.84v71Z"/><path class="cls-1" d="M484.92,521.61h93.31v33.65H527.17v19.17h40.89v33.26H527.17v20.15H581v33.65H484.92Z"/><path class="cls-1" d="M599,521.61H659.8c30.71,0,51.65,16.63,51.65,46,0,16-8.22,31.1-21.33,39.12v.39c.39.78,3.13,4.31,6.06,9.59l24.46,44.8h-46L653,617.67H641.21v43.82H599ZM653.73,585c9.4,0,14.87-5.68,14.87-14.87,0-8.81-3.71-14.48-16.43-14.48h-11V585Z"/><path class="cls-1" d="M732.56,521.61h91.36v33.65H774.81v23.67h40.3V612h-40.3v49.49H732.56Z"/><path class="cls-1" d="M840.92,521.61h42.26V626.08H938v35.41h-97Z"/><path class="cls-1" d="M1017,519.26c45,0,75.12,30.72,75.12,71.41,0,41.67-30.12,73.17-75.12,73.17s-75.12-31.5-75.12-73.17C941.85,550,972,519.26,1017,519.26Zm0,107.21c18.39,0,31.69-14.47,31.69-35.8,0-20.35-13.3-34-31.69-34s-31.69,13.69-31.69,34C985.28,612,998.58,626.47,1017,626.47Z"/><path class="cls-1" d="M1177.76,519.26c45,0,75.12,30.72,75.12,71.41,0,41.67-30.12,73.17-75.12,73.17s-75.12-31.5-75.12-73.17C1102.64,550,1132.77,519.26,1177.76,519.26Zm0,107.21c18.39,0,31.69-14.47,31.69-35.8,0-20.35-13.3-34-31.69-34s-31.69,13.69-31.69,34C1146.07,612,1159.37,626.47,1177.76,626.47Z"/><path class="cls-1" d="M1270.08,521.61h60.84c30.71,0,51.65,16.63,51.65,46,0,16-8.22,31.1-21.32,39.12v.39c.38.78,3.12,4.31,6.06,9.59l24.45,44.8h-46l-21.72-43.82h-11.74v43.82h-42.25ZM1324.85,585c9.4,0,14.88-5.68,14.88-14.87,0-8.81-3.73-14.48-16.44-14.48h-11V585Z"/><path class="cls-1" d="M43.31,691.27h66.13v82.36h63.38V691.27H239V910.19H172.82V829.66H109.44v80.53H43.31Z"/><path class="cls-1" d="M276.92,691.27H423v52.66H343.05v30h64v52h-64v31.53h84.2v52.67H276.92Z"/><path class="cls-1" d="M506.87,691.27h71l72.26,218.92h-64l-11.63-40.42h-64.6L498.6,910.19h-64ZM561.06,821.7,551,786.18c-3.67-13.77-8-39.19-8-39.19h-1.22s-4.29,25.42-8.27,39.19L523.4,821.7Z"/><path class="cls-1" d="M693.94,747.61H628.72V691.27H825v56.34H759.77V910.19H693.94Z"/><path class="cls-1" d="M847.64,691.27h66.14V910.19H847.64Z"/><path class="cls-1" d="M951.75,691.27h63.07L1068.71,781c9.19,15,15.61,33.37,15.61,33.37h1.23s-2.45-19.59-2.45-33.37V691.27h64V910.19h-64.3l-54.19-94c-8-13.17-15.62-33.07-15.62-33.07h-1.22s2.45,19.29,2.45,33.07v94H951.75Z"/><path class="cls-1" d="M1294.67,687.59c56.64,0,85.12,27.87,85.12,27.87L1352.54,766s-19.9-19.91-52.67-19.91c-41,0-57.56,25.11-57.56,53.58,0,33.38,22,57.26,55.42,57.26,20.51,0,36.44-10.72,38.58-13.47v-9.8h-27.86V786.49h82.66v123.7h-52.66V900.7a28.45,28.45,0,0,1,.61-7h-1.22c-2.76,3.67-20.21,20.2-55.42,20.2-59.39,0-108.08-44.39-108.08-112.67C1174.34,736.89,1221.8,687.59,1294.67,687.59Z"/></svg>