<svg xmlns="http://www.w3.org/2000/svg" viewBox="0 0 604.58 362.29"><defs><style>.cls-1{fill:#e63947;}</style></defs><g id="Layer_2" data-name="Layer 2"><g id="Layer_1-2" data-name="Layer 1"><polygon class="cls-1" points="301.71 208.7 348.96 255.96 301.71 362.29 254.45 255.96 301.71 208.7"/><path class="cls-1" d="M478.59,58.49A67.51,67.51,0,1,0,546.1,126,67.51,67.51,0,0,0,478.59,58.49Zm0,91A23.51,23.51,0,1,1,502.09,126,23.51,23.51,0,0,1,478.59,149.51Zm0,102.49a126,126,0,1,1,126-126A126,126,0,0,1,478.59,252Z"/><path class="cls-1" d="M126,58.49A67.51,67.51,0,1,0,193.51,126,67.5,67.5,0,0,0,126,58.49Zm0,91A23.51,23.51,0,1,1,149.51,126,23.52,23.52,0,0,1,126,149.51ZM126,252A126,126,0,1,1,252,126,126,126,0,0,1,126,252Z"/></g></g></svg>