<svg xmlns="http://www.w3.org/2000/svg" viewBox="0 0 628.57 667.42"><defs><style>.cls-1{fill:#fff;}.cls-2{fill:#ebcd80;}.cls-3{fill:#416a80;}.cls-4{fill:#7f7048;}.cls-5{fill:#eccf82;}.cls-6{fill:#39a8e0;}</style></defs><g id="Layer_2" data-name="Layer 2"><g id="Layer_1-2" data-name="Layer 1"><path class="cls-1" d="M.47,510.7V441.22H10v25H51.55v8.7H10V510.7c0,12.84,7.13,19,18.12,19s18.12-6,18.12-19v-1.57h9.28v1.57c0,18.55-11.13,27.83-27.4,27.83S.47,529.25.47,510.7Z"/><path class="cls-1" d="M64.68,501.43c0-21.4,15.69-37.1,37.95-37.1s38,15.7,38,37.1-15.7,37.1-38,37.1S64.68,522.83,64.68,501.43Zm66.21,0c0-16.27-11.42-28.25-28.26-28.25s-28.25,12-28.25,28.25,11.42,28.25,28.25,28.25S130.89,517.69,130.89,501.43Z"/><path class="cls-1" d="M151.86,546h9.71c3.85,10,13.69,14.26,25.68,14.26,16.26,0,27.82-8.13,27.82-29V521c-5.42,11-16.26,17.12-29.68,17.12-19.83,0-36.52-13.7-36.52-36.67,0-21.4,15.69-37.1,37.95-37.1s37.81,15.12,37.81,37.53v29c0,27.25-16.41,37.81-37.38,37.81C170.27,568.63,156.71,561.64,151.86,546Zm63.21-44.52c0-16.27-11.41-28.25-28.25-28.25s-28.25,12-28.25,28.25,11.41,27.82,28.25,27.82S215.07,517.69,215.07,501.43Z"/><path class="cls-1" d="M235.76,501.43c0-21.4,15.7-37.1,38-37.1s37.67,15.7,37.67,37.1v3.14H245.61c1.28,14.69,12.27,25.11,28.11,25.11,11.13,0,19.69-4.57,24.26-12.7h10.41c-5.42,13-18.26,21.55-34.67,21.55C251.46,538.53,235.76,522.83,235.76,501.43ZM301.4,496c-2.28-14.27-13.41-22.83-27.68-22.83-14.7,0-25.68,9-27.82,22.83Z"/><path class="cls-1" d="M322.52,510.7V441.22h9.56v25H373.6v8.7H332.08V510.7c0,12.84,7.13,19,18.12,19s18.12-6,18.12-19v-1.57h9.28v1.57c0,18.55-11.13,27.83-27.4,27.83S322.52,529.25,322.52,510.7Z"/><path class="cls-1" d="M391.87,435.36h9.56v44.52c5-10.13,14.41-15.55,26.68-15.55,18.83,0,33.39,11.41,33.39,35.53v36.81h-9.56V499.86c0-17.41-10-26.68-25.26-26.68s-25.25,9.56-25.25,26.68v36.81h-9.56Z"/><path class="cls-1" d="M472.63,501.43c0-21.4,15.69-37.1,37.95-37.1s37.67,15.7,37.67,37.1v3.14H482.47c1.29,14.69,12.27,25.11,28.11,25.11,11.13,0,19.69-4.57,24.26-12.7h10.41c-5.42,13-18.26,21.55-34.67,21.55C488.32,538.53,472.63,522.83,472.63,501.43ZM538.26,496c-2.28-14.27-13.41-22.83-27.68-22.83-14.69,0-25.68,9-27.82,22.83Z"/><path class="cls-1" d="M559.38,494.44c0-20.26,12.13-30.11,29.68-30.11s29.54,9.85,29.54,30.25v.86h-9.42v-1c0-14.7-8.13-21.26-20.12-21.26s-20.12,6.56-20.12,21.26v42.23h-9.56Z"/><path class="cls-2" d="M0,613.85c0-17.55,12.87-30.42,31.12-30.42,14.5,0,25.61,8.07,29.47,20.24H57.43C53.69,593.14,44,586.24,31.12,586.24c-16.73,0-28,11.81-28,27.61s11.23,27.6,28,27.6c12.86,0,22.57-6.9,26.31-17.43h3.16c-3.86,12.17-15,20.24-29.47,20.24C12.87,644.26,0,631.39,0,613.85Z"/><path class="cls-2" d="M67.84,613.85c0-17.55,12.87-30.42,31.11-30.42s31.12,12.87,31.12,30.42S117.2,644.26,99,644.26,67.84,631.39,67.84,613.85Zm59.07,0c0-15.8-11.23-27.61-28-27.61S71,598.05,71,613.85s11.23,27.6,28,27.6S126.91,629.64,126.91,613.85Z"/><path class="cls-2" d="M139.19,608.23c0-16.49,9.71-24.8,22.69-24.8,10.29,0,18.6,5.38,21.52,16.14,2.93-10.76,11.23-16.14,21.53-16.14,13,0,22.69,8.31,22.69,24.8v34.51h-3V608.23c0-14.5-8.31-22-19.77-22s-19.88,7.84-19.88,22v34.51h-3.05V608.23c0-14.15-8.54-22-19.88-22s-19.77,7.49-19.77,22v34.51h-3Z"/><path class="cls-2" d="M239.08,614.08c0-18,12.75-30.65,31-30.65s31.12,12.87,31.12,30.42-12.87,30.41-31,30.41c-13.1,0-23.63-6.55-28.07-17.43v40.59h-3Zm58.95-.23c0-15.8-11.23-27.61-28-27.61s-27.95,11.81-27.95,27.61,11.23,27.6,27.95,27.6S298,629.64,298,613.85Z"/><path class="cls-2" d="M312.65,559.69h3v83h-3Z"/><path class="cls-2" d="M330.07,567.29a3.28,3.28,0,1,1,3.28,3.28A3.21,3.21,0,0,1,330.07,567.29ZM331.83,585h3v57.79h-3Z"/><path class="cls-2" d="M346.33,613.85c0-17.55,12.87-30.42,31.11-30.42s31,12.75,31,30.65v28.66h-2.92V626.36c-4.8,11.46-15.09,17.9-28.19,17.9C359.2,644.26,346.33,631.39,346.33,613.85Zm59.07,0c0-15.8-11.23-27.61-28-27.61s-27.95,11.81-27.95,27.61,11.23,27.6,27.95,27.6S405.4,629.64,405.4,613.85Z"/><path class="cls-2" d="M419.9,612.44c0-19.07,11.46-29,28.54-29s28.54,9.94,28.54,29v30.3h-3v-30.3c0-16.73-10.06-26.2-25.5-26.2s-25.5,9.47-25.5,26.2v30.3h-3Z"/><path class="cls-2" d="M486.1,613.85c0-17.55,12.87-30.42,31.12-30.42,14.5,0,25.62,8.07,29.48,20.24h-3.16c-3.75-10.53-13.45-17.43-26.32-17.43-16.73,0-28,11.81-28,27.61s11.23,27.6,28,27.6c12.87,0,22.57-6.9,26.32-17.43h3.16c-3.86,12.17-15,20.24-29.48,20.24C499,644.26,486.1,631.39,486.1,613.85Z"/><path class="cls-2" d="M553.94,613.85c0-17.55,12.87-30.42,31.12-30.42s31,12.87,31,30.42v.23h-59c.12,15.67,11.23,27.37,28,27.37,11.81,0,20.94-5.85,25.26-15h3.28c-4.45,10.76-15,17.78-28.54,17.78C566.81,644.26,553.94,631.39,553.94,613.85Zm59-2.58c-1.17-14.5-12-25-27.84-25s-26.79,10.53-28,25Z"/><path class="cls-3" d="M16.36,14S29.16-.61,60.35,0V66.85S29.21,68.79,22.07,85C7.8,42.84-4.26,45.52,16.36,14Z"/><path class="cls-4" d="M604.37,14S591.67-.61,560.47,0V66.85S591.62,68.79,598.75,85C613,42.84,627.2,38.38,604.37,14Z"/><path class="cls-5" d="M304.58,379.48s-65.14,6.44-162.7-102.6c87.64-45,142.31-125.3,248-123.49,104.25,0,178.52-58.76,208.75-90.43,24.78-29.42,10-44.6,5.7-49,70.79,47.95-25.77,175.12-134,266.27-59.94,50.46-124.91,99.25-165.76,99.25"/><path class="cls-6" d="M144.77,280.32c20.74,21.66,16.64-11.68,52.13,18.26C212.79,312,232.51,325.45,273,345.5c23.64,11.89,40.37,13.14,65.93,1.85,31.21-13.8,98.8-59.32,142.54-101-101.72-1.58-89.83-34.55-133.72-36.57-16.06-.74-53.27,13.51-69.22,13.47C257,223.23,246,211.84,244,208.13c15.63-9.29,66.6-52.53,133.85-54.58-23.75-38.32-79,.86-139.1-.16-104.23-1.75-180.81-59-211-90.67C9.15,44.41,12.05,18.36,16.36,14-42.3,87.83,85,217.83,144.77,280.32Z"/></g></g></svg>