<svg id="Layer_1" data-name="Layer 1" xmlns="http://www.w3.org/2000/svg" viewBox="0 0 1000 285.2"><defs><style>.cls-1{fill:#242423;}.cls-2{fill:#ededed;}</style></defs><rect class="cls-1" width="1000" height="285.2"/><path class="cls-2" d="M285,98.07v1.71H273.78v40.11h35.34V99.78H297.87V98.07H338.1v1.71H326.85v83.64H338.1v1.71H297.87v-1.71h11.25V141.6H273.78v41.82H285v1.71H244.8v-1.71h11.25V99.78H244.8V98.07Z"/><path class="cls-2" d="M363.18,154.44v7.09c0,9.54,1,23.6,15.53,23.6A18.42,18.42,0,0,0,396.81,171l1.71.61c-2.94,9.78-10.76,15.29-21.65,15.29-17.48,0-30.2-11.13-30.2-28.13,0-14.67,13.21-27.76,28.49-27.76,13,0,24.09,8.32,24.09,23.48Zm19.56-1.71v-8.56c0-7.95-2.57-11.5-8.07-11.5-9.41,0-11.25,8.81-11.49,20.06Z"/><path class="cls-2" d="M469.08,183.42h8.19v1.71H446.58v-1.71h7.58v-39c0-6-2.81-9.54-7.7-9.54-4.41,0-7.95,2.08-10.77,6.24s-4,9.29-4,15.53v26.78h7.7v1.71H408.67v-1.71h8.07v-49h-8.07v-1.72h22.75V144.9h.24c3.91-9.05,11-13.33,20.42-13.33,10.76,0,17,7.22,17,17Z"/><path class="cls-2" d="M541.23,97v86.45h8.07v1.71H526.55v-9h-.24c-2.57,6.73-7.46,10.77-14.43,10.77-15.77,0-26.66-13.33-26.66-28,0-10.51,5.87-19.44,11.74-23.48a25.38,25.38,0,0,1,14.92-4.4c7.34,0,11.74,3.79,14.19,10.27h.24V98.68H518V97Zm-39.5,63.95c.12,6.48.49,12.6,1.35,15.9,1.22,4.64,3.54,8.31,8.8,8.31,12.23,0,14.43-12.23,14.43-26.17,0-17.6-4.28-26.29-13.57-26.29-7.58,0-10,5.51-10.89,19.81C501.73,154.69,501.73,157.74,501.73,160.92Z"/><path class="cls-2" d="M573.88,154.44v7.09c0,9.54,1,23.6,15.53,23.6A18.41,18.41,0,0,0,607.51,171l1.71.61c-2.93,9.78-10.76,15.29-21.64,15.29-17.49,0-30.21-11.13-30.21-28.13,0-14.67,13.21-27.76,28.5-27.76,13,0,24.09,8.32,24.09,23.48Zm19.57-1.71v-8.56c0-7.95-2.57-11.5-8.07-11.5-9.42,0-11.25,8.81-11.5,20.06Z"/><path class="cls-2" d="M661.93,149.79c-4,0-7.46-1.46-7.46-5.5,0-1.71.86-3.91.86-6,0-1.47-.62-3.06-2.82-3.06-4.28,0-10.39,8.07-10.39,16.14v32h9.66v1.71H619.25v-1.71h8v-49h-8v-1.72h22.62v10.27h.25c2.93-6.23,7.58-11.37,15.77-11.37,6.85,0,11.5,3.92,11.5,10.4C669.39,146.86,667.19,149.79,661.93,149.79Z"/><path class="cls-2" d="M710,132.43h1.71v14.92h-1.59c-4.4-11.86-9.05-14.68-16.26-14.68-6.12,0-10.76,3.43-10.76,8.44,0,6.85,7.45,8.32,19.68,12.47,7.1,2.45,13.09,7.1,13.09,15.66,0,10.15-9.42,17.61-20.91,17.61-5.63,0-14.55-3.43-17.12-3.43-1.35,0-1.71.37-2.2,1.71h-1.71V167.4h1.71c5.38,14.19,10.88,17.73,18.83,17.73,8.31,0,10.88-3.79,10.88-9.78,0-7.7-12.47-9.54-20.42-13.08-5.63-2.45-10.27-6.48-10.27-13.82,0-9.78,8.44-17.49,20.05-17.49,5.63,0,11.38,3.06,13,3.06A2.08,2.08,0,0,0,710,132.43Z"/><path class="cls-2" d="M754.62,186.85c-16.5,0-29.83-12.48-29.83-28S738.24,131,754.62,131s29.84,12.47,29.84,27.88S771.13,186.85,754.62,186.85Zm11.87-11.25c1.34-4.53,1.46-11.13,1.46-20.3,0-11.5-1.71-22.63-13.45-22.63-12,0-13.21,11.74-13.21,26.17,0,13.94.86,26.29,13.33,26.29C759.88,185.13,764.28,183.05,766.49,175.6Z"/><path class="cls-2" d="M854.17,183.42h8.19v1.71H831.67v-1.71h7.58v-39c0-6-2.81-9.54-7.71-9.54-4.4,0-7.94,2.08-10.76,6.24s-4,9.29-4,15.53v26.78h7.7v1.71H793.76v-1.71h8.07v-49h-8.07v-1.72H816.5V144.9h.25c3.91-9.05,11-13.33,20.42-13.33,10.76,0,17,7.22,17,17Z"/><path class="cls-2" d="M907.12,132.43h1.71v14.92h-1.59c-4.4-11.86-9-14.68-16.26-14.68-6.12,0-10.76,3.43-10.76,8.44,0,6.85,7.46,8.32,19.68,12.47C907,156,913,160.68,913,169.24c0,10.15-9.42,17.61-20.91,17.61-5.63,0-14.55-3.43-17.12-3.43-1.35,0-1.71.37-2.2,1.71h-1.71V167.4h1.71c5.38,14.19,10.88,17.73,18.83,17.73,8.31,0,10.88-3.79,10.88-9.78,0-7.7-12.47-9.54-20.42-13.08-5.62-2.45-10.27-6.48-10.27-13.82,0-9.78,8.44-17.49,20.05-17.49,5.63,0,11.38,3.06,13,3.06A2.08,2.08,0,0,0,907.12,132.43Z"/><path class="cls-2" d="M942.71,223.69H217.46V61.51H942.71Zm-723.25-2H940.71V63.51H219.46Z"/><path class="cls-2" d="M219.46,223.69H57.29V61.51H219.46Zm-160.17-2H217.46V63.51H59.29Z"/><polygon class="cls-2" points="173.9 142.6 173.9 186.09 156.86 186.09 156.86 142.6 166.82 142.6 173.9 142.6"/><polygon class="cls-2" points="173.9 100.65 173.9 142.6 166.82 142.6 156.86 142.6 156.86 100.65 173.9 100.65"/><polygon class="cls-2" points="121.63 142.6 121.63 186.09 103.45 186.09 103.45 142.6 113.05 142.6 121.63 142.6"/><polygon class="cls-2" points="121.63 100.65 121.63 142.6 113.05 142.6 103.45 142.6 103.45 100.65 121.63 100.65"/><path class="cls-2" d="M138.37,207.54a64.72,64.72,0,0,1-17-2.25,65.1,65.1,0,0,1-30.59-18.52A64.9,64.9,0,0,1,102.91,88.2a64.72,64.72,0,0,1,35.46-10.54A64.93,64.93,0,0,1,186,186.77a64.75,64.75,0,0,1-47.6,20.77Zm0-127.88a62.55,62.55,0,0,0-16.52,2.2,61.84,61.84,0,0,0-17.85,8,62.91,62.91,0,0,0-11.75,95.53,63.07,63.07,0,0,0,29.64,18,63.25,63.25,0,0,0,34.68-.5,61.92,61.92,0,0,0,16.77-7.92,62.91,62.91,0,0,0-35-115.28Z"/><polygon class="cls-2" points="103.2 196.21 103.2 88.69 103.7 88.69 103.7 196.16 103.2 196.21"/><rect class="cls-2" x="121.38" y="81.09" width="0.5" height="123.23"/><rect class="cls-2" x="156.61" y="81.09" width="0.5" height="122.73"/><rect class="cls-2" x="173.65" y="88.69" width="0.5" height="107.52"/><rect class="cls-2" x="166.82" y="142.35" width="35.49" height="0.5"/><rect class="cls-2" x="74.43" y="142.35" width="38.62" height="0.5"/><rect class="cls-2" x="113.05" y="141.6" width="53.78" height="2"/><rect class="cls-2" x="89.86" y="100.4" width="97.4" height="0.5"/><polygon class="cls-2" points="185.29 186.34 91.02 186.34 91.02 185.84 185.24 185.84 185.29 186.34"/></svg>