<svg id="Layer_1" data-name="Layer 1" xmlns="http://www.w3.org/2000/svg" viewBox="0 0 3587.89 1024"><defs><style>.cls-1{fill:#613f75;}.cls-2{fill:#e5c3d1;}.cls-3{fill:#7d82b8;}.cls-4{fill:#4d4d4d;}.cls-5{fill:#e6e6e6;}.cls-6{fill:#b3b3b3;}.cls-10,.cls-11,.cls-12,.cls-13,.cls-14,.cls-15,.cls-16,.cls-17,.cls-18,.cls-7,.cls-8,.cls-9{fill:none;stroke-miterlimit:10;}.cls-10,.cls-11,.cls-12,.cls-13,.cls-14,.cls-15,.cls-16,.cls-17,.cls-7,.cls-8,.cls-9{stroke:#999;}.cls-8{stroke-dasharray:6.03 6.03;}.cls-9{stroke-dasharray:6.02 6.02;}.cls-10{stroke-dasharray:6.03 6.03;}.cls-11{stroke-dasharray:5.98 5.98;}.cls-12{stroke-dasharray:5.96 5.96;}.cls-13{stroke-dasharray:5.99 5.99;}.cls-14{stroke-dasharray:5.97 5.97;}.cls-15{stroke-dasharray:6.03 6.03;}.cls-16{stroke-dasharray:6.03 6.03;}.cls-17{stroke-dasharray:6 6;}.cls-18{stroke:#4d4d4d;}</style></defs><polygon class="cls-1" points="2945.33 252.64 2945.33 516.4 2716.91 648.27 2716.91 384.52 2945.33 252.64"/><polygon class="cls-2" points="3173.75 648.27 3173.75 384.52 2945.33 252.64 2945.33 516.39 3173.75 648.27"/><polygon class="cls-3" points="2716.91 648.27 2945.33 516.39 3173.75 648.27 2945.33 780.15 2716.91 648.27"/><path class="cls-1" d="M3173.75,384.52V648.27L2945.33,780.15v79.72l297.46-171.74V344.66Z"/><path class="cls-2" d="M2647.87,344.66V688.13l297.46,171.74V780.15L2716.91,648.27V384.52Z"/><path class="cls-3" d="M3242.79,344.66,2945.33,172.92,2647.87,344.66l69,39.86,228.42-131.88,228.42,131.88Z"/><polygon class="cls-4" points="1747.86 252.64 1747.86 516.4 1519.44 648.27 1519.44 384.52 1747.86 252.64"/><polygon class="cls-5" points="1976.28 648.27 1976.28 384.52 1747.86 252.64 1747.86 516.39 1976.28 648.27"/><polygon class="cls-6" points="1519.44 648.27 1747.86 516.39 1976.28 648.27 1747.86 780.15 1519.44 648.27"/><path class="cls-4" d="M1976.28,384.52V648.27L1747.86,780.15v79.72l297.46-171.74V344.66Z"/><path class="cls-5" d="M1450.41,344.66V688.13l297.45,171.74V780.15L1519.45,648.27V384.52Z"/><path class="cls-6" d="M2045.32,344.66,1747.86,172.92,1450.41,344.66l69,39.86,228.41-131.88,228.42,131.88Z"/><line class="cls-7" x1="188.37" y1="308.67" x2="190.97" y2="310.17"/><line class="cls-8" x1="196.19" y1="313.17" x2="935.8" y2="738.45"/><line class="cls-7" x1="938.41" y1="739.95" x2="941.01" y2="741.45"/><line class="cls-7" x1="188.37" y1="308.67" x2="190.97" y2="310.17"/><line class="cls-8" x1="196.19" y1="313.17" x2="935.8" y2="738.45"/><line class="cls-7" x1="938.41" y1="739.95" x2="941.01" y2="741.45"/><line class="cls-7" x1="55.3" y1="574.75" x2="57.91" y2="576.25"/><line class="cls-9" x1="63.13" y1="579.25" x2="718.29" y2="955.97"/><line class="cls-7" x1="720.9" y1="957.47" x2="723.5" y2="958.96"/><line class="cls-7" x1="106.18" y1="523.87" x2="108.79" y2="525.37"/><line class="cls-9" x1="114.01" y1="528.37" x2="769.17" y2="905.09"/><line class="cls-7" x1="771.78" y1="906.59" x2="774.38" y2="908.08"/><line class="cls-7" x1="406.24" y1="90.8" x2="408.83" y2="92.3"/><line class="cls-10" x1="414.05" y1="95.32" x2="1068.66" y2="473.89"/><line class="cls-7" x1="1071.27" y1="475.4" x2="1073.87" y2="476.9"/><line class="cls-7" x1="356.34" y1="140.7" x2="358.93" y2="142.2"/><line class="cls-11" x1="364.11" y1="145.2" x2="993.18" y2="509"/><line class="cls-7" x1="995.77" y1="510.5" x2="998.37" y2="512"/><line class="cls-7" x1="926.9" y1="300.19" x2="924.3" y2="301.68"/><line class="cls-8" x1="919.07" y1="304.69" x2="179.47" y2="729.96"/><line class="cls-7" x1="176.85" y1="731.46" x2="174.25" y2="732.96"/><line class="cls-7" x1="926.9" y1="300.19" x2="924.3" y2="301.68"/><line class="cls-8" x1="919.07" y1="304.69" x2="179.47" y2="729.96"/><line class="cls-7" x1="176.85" y1="731.46" x2="174.25" y2="732.96"/><line class="cls-7" x1="1073.51" y1="558.48" x2="1070.91" y2="559.97"/><line class="cls-12" x1="1065.74" y1="562.94" x2="396.95" y2="947.5"/><line class="cls-7" x1="394.37" y1="948.98" x2="391.77" y2="950.48"/><line class="cls-7" x1="995.59" y1="523.88" x2="992.99" y2="525.38"/><line class="cls-13" x1="987.8" y1="528.36" x2="346.56" y2="897.08"/><line class="cls-7" x1="343.96" y1="898.57" x2="341.36" y2="900.07"/><line class="cls-7" x1="709.03" y1="82.31" x2="706.43" y2="83.81"/><line class="cls-14" x1="701.25" y1="86.79" x2="61.59" y2="454.59"/><line class="cls-7" x1="59" y1="456.08" x2="56.4" y2="457.58"/><line class="cls-7" x1="759.61" y1="132.9" x2="757.01" y2="134.39"/><line class="cls-14" x1="751.83" y1="137.37" x2="112.17" y2="505.18"/><line class="cls-7" x1="109.58" y1="506.67" x2="106.98" y2="508.16"/><line class="cls-7" x1="252.94" y1="234.58" x2="252.94" y2="237.58"/><line class="cls-15" x1="252.94" y1="243.61" x2="252.94" y2="807.17"/><line class="cls-7" x1="252.94" y1="810.18" x2="252.94" y2="813.18"/><line class="cls-7" x1="321.98" y1="172.92" x2="321.98" y2="175.92"/><line class="cls-16" x1="321.98" y1="181.95" x2="321.98" y2="865.97"/><line class="cls-7" x1="321.98" y1="868.98" x2="321.98" y2="871.98"/><line class="cls-7" x1="778.82" y1="172.92" x2="778.82" y2="175.92"/><line class="cls-16" x1="778.82" y1="181.95" x2="778.82" y2="865.97"/><line class="cls-7" x1="778.82" y1="868.98" x2="778.82" y2="871.98"/><line class="cls-7" x1="847.86" y1="234.58" x2="847.86" y2="237.58"/><line class="cls-15" x1="847.86" y1="243.61" x2="847.86" y2="807.17"/><line class="cls-7" x1="847.86" y1="810.18" x2="847.86" y2="813.18"/><line class="cls-7" x1="550.4" y1="28.78" x2="550.4" y2="31.78"/><line class="cls-17" x1="550.4" y1="37.78" x2="550.4" y2="947.13"/><line class="cls-7" x1="550.4" y1="950.13" x2="550.4" y2="953.13"/><polygon class="cls-18" points="550.4 252.64 550.4 516.4 321.98 648.27 321.98 384.52 550.4 252.64"/><polygon class="cls-18" points="778.82 648.27 778.82 384.52 550.4 252.64 550.4 516.39 778.82 648.27"/><polygon class="cls-18" points="321.98 648.27 550.4 516.39 778.82 648.27 550.4 780.15 321.98 648.27"/><path class="cls-18" d="M778.82,384.52V648.27L550.4,780.15v79.72L847.86,688.13V344.66Z"/><path class="cls-18" d="M252.94,344.66V688.13L550.4,859.87V780.15L322,648.27V384.52Z"/><path class="cls-18" d="M847.86,344.66,550.4,172.92,252.94,344.66l69,39.86L550.4,252.64,778.82,384.52Z"/></svg>