<svg xmlns="http://www.w3.org/2000/svg" viewBox="0 0 105.83 147.53"><g id="Layer_2" data-name="Layer 2"><g id="Layer_1-2" data-name="Layer 1"><rect width="105.83" height="147.53" style="fill:#e53947"/><g id="o"><path d="M28.28,137a7.55,7.55,0,1,1,0-15.1,7.55,7.55,0,1,1,0,15.1Zm0-12.55a5,5,0,0,0,0,10,5,5,0,0,0,0-10Z" style="fill:#e6e6e6"/><path d="M28.28,122.43c4.27,0,7.24,2.9,7.24,7s-3,7.05-7.24,7.05S21,133.63,21,129.48s3-7,7.24-7m0,12.55a5.5,5.5,0,1,0-5.35-5.5,5.25,5.25,0,0,0,5.35,5.5m0-13.55a8.05,8.05,0,1,0,0,16.1,8.05,8.05,0,1,0,0-16.1Zm0,12.55a4.5,4.5,0,1,1,4.36-4.5,4.22,4.22,0,0,1-4.36,4.5Z" style="fill:#e6e6e6"/></g><g id="w"><path d="M52.67,137a4.41,4.41,0,0,1-3.87-1.9l-.41-.64-.42.64A4.39,4.39,0,0,1,44.1,137c-3.2,0-5-2-5-5.49v-9.3H41.9v9.3c0,1.87.92,2.94,2.53,2.94.77,0,2.54-.28,2.54-2.94v-9.3h2.84v9.3c0,2.66,1.77,2.94,2.53,2.94,1.61,0,2.54-1.07,2.54-2.94v-9.3h2.83v9.3C57.71,135,55.88,137,52.67,137Z" style="fill:#e6e6e6"/><path d="M57.21,122.74v8.8c0,3.22-1.61,5-4.54,5a3.85,3.85,0,0,1-3.45-1.68l-.83-1.26-.84,1.26a3.85,3.85,0,0,1-3.45,1.68c-2.93,0-4.54-1.77-4.54-5v-8.8H41.4v8.8c0,2.16,1.13,3.44,3,3.44s3-1.28,3-3.44v-8.8h1.84v8.8c0,2.16,1.13,3.44,3,3.44s3-1.28,3-3.44v-8.8h1.83m1-1H54.38v9.8c0,1.8-.88,2.44-2,2.44s-2-.64-2-2.44v-9.8H46.47v9.8c0,1.8-.9,2.44-2,2.44s-2-.64-2-2.44v-9.8H38.56v9.8c0,4.15,2.42,6,5.54,6a4.88,4.88,0,0,0,4.29-2.13,4.85,4.85,0,0,0,4.28,2.13c3.13,0,5.54-1.84,5.54-6v-9.8Z" style="fill:#e6e6e6"/></g><g id="l"><polygon points="61.53 136.72 61.53 122.24 64.37 122.24 64.37 134.18 71.68 134.18 71.68 136.72 61.53 136.72" style="fill:#e6e6e6"/><path d="M63.87,122.74v11.93h7.31v1.56H62V122.74h1.84m1-1H61v15.49H72.18v-3.56H64.87V121.74Z" style="fill:#e6e6e6"/></g><g id="s"><path d="M79.19,137c-3,0-5-1.47-5.29-3.87h2.76c.15.73.72,1.58,2.53,1.58,2.25,0,2.59-1.3,2.59-2.08,0-1.46-1.61-1.75-3-2-2.16-.4-4.61-.84-4.61-4.2,0-2.7,2-4.52,5.07-4.52,2.77,0,4.69,1.52,5,3.9H81.62a2.16,2.16,0,0,0-2.36-1.61,2.11,2.11,0,0,0-2.41,2.09c0,1.46,1.61,1.75,3,2,2.18.39,4.64.84,4.64,4.19C84.52,135.3,82.48,137,79.19,137Z" style="fill:#e6e6e6"/><path d="M79.22,122.43c2.26,0,3.89,1.11,4.4,2.9H82a2.74,2.74,0,0,0-2.73-1.61,2.61,2.61,0,0,0-2.91,2.59c0,1.88,2,2.24,3.45,2.5,2.55.46,4.22,1,4.22,3.7,0,2.48-1.85,4-4.83,4-2.52,0-4.2-1.05-4.68-2.87h1.78c.3.75,1,1.58,2.9,1.58,2.86,0,3.09-2,3.09-2.58,0-1.88-2-2.24-3.43-2.5-2.54-.47-4.2-1-4.2-3.71,0-2.4,1.84-4,4.57-4m0-1c-3.34,0-5.57,2.09-5.57,5,0,3.77,2.82,4.29,5,4.69,1.42.26,2.61.5,2.61,1.52s-.6,1.58-2.09,1.58-2.08-.61-2.08-1.58H73.37c.07,3,2.37,4.87,5.82,4.87s5.83-1.94,5.83-5c0-3.76-2.82-4.28-5-4.68-1.44-.26-2.62-.5-2.62-1.52,0-.8.54-1.59,1.91-1.59s1.9.71,1.92,1.61h3.6c-.12-2.93-2.32-4.9-5.56-4.9Z" style="fill:#e6e6e6"/></g><g id="diamond"><path d="M25.23,75.5a.77.77,0,0,1-.7-.46L19.15,62.93a.77.77,0,0,1,.16-.86l5.38-5.38a.77.77,0,0,1,.54-.22.8.8,0,0,1,.55.22l5.38,5.38a.78.78,0,0,1,.16.86L25.94,75A.77.77,0,0,1,25.23,75.5Z" style="fill:#e6e6e6"/><path d="M25.23,57a.24.24,0,0,1,.19.08l5.39,5.38a.28.28,0,0,1,.05.3L25.48,74.84a.26.26,0,0,1-.25.16.25.25,0,0,1-.24-.16L19.61,62.73a.26.26,0,0,1,.05-.3L25,57.05a.25.25,0,0,1,.19-.08m0-1a1.23,1.23,0,0,0-.89.37L19,61.72a1.27,1.27,0,0,0-.26,1.41l5.38,12.11a1.28,1.28,0,0,0,1.16.76,1.26,1.26,0,0,0,1.16-.76l5.39-12.11a1.27,1.27,0,0,0-.27-1.41l-5.38-5.38a1.26,1.26,0,0,0-.9-.37Z" style="fill:#e6e6e6"/></g><g id="two"><path d="M20.57,114.79a.07.07,0,0,1-.07-.07v-8L60.43,70.35C70.92,61,75.59,52.68,75.59,43.47c0-14.92-8.66-24.18-22.6-24.18S29.92,29,29.92,43.94v1.64a.07.07,0,0,1-.07.07H20.73a.07.07,0,0,1-.07-.07v-.85C20.66,23.64,33,10.52,52.94,10.5H79.83l0,.13-6.52,4.31a1.06,1.06,0,0,0-.48.85,1.07,1.07,0,0,0,.43.89c7.76,5.82,12,15.33,12,26.79,0,13.56-6.6,22.17-18,32.46L35.76,104.45a1.08,1.08,0,0,0,.72,1.87H84a.07.07,0,0,1,.07.07v8.33a.07.07,0,0,1-.07.07Z" style="fill:#e6e6e6"/><path d="M78.4,11l-5.33,3.52a1.59,1.59,0,0,0-.7,1.26,1.54,1.54,0,0,0,.63,1.3c7.63,5.72,11.83,15.09,11.83,26.39,0,13.38-6.54,21.9-17.83,32.09L35.43,104.08a1.58,1.58,0,0,0,1,2.74H83.56v7.47H21v-7.4L60.76,70.73c10.6-9.49,15.33-17.89,15.33-27.26,0-15.23-8.85-24.68-23.1-24.68S29.42,28.66,29.42,43.94v1.21H21.16v-.42C21.16,24,33.34,11,53,11H78.4m1.43-1H52.94C32.45,10,20.16,23.91,20.16,44.73v.85a.58.58,0,0,0,.57.57h9.12a.58.58,0,0,0,.57-.57V43.94c0-14.21,8.52-24.15,22.57-24.15,14.37,0,22.1,9.63,22.1,23.68,0,10.26-6,18.46-15,26.51l-39.91,36.3a.57.57,0,0,0-.19.42v8a.58.58,0,0,0,.57.57H84a.57.57,0,0,0,.57-.57v-8.33a.56.56,0,0,0-.57-.57H36.48a.57.57,0,0,1-.38-1L67.67,76.3C79,66,85.83,57.36,85.83,43.47c0-11.66-4.37-21.29-12.23-27.19a.57.57,0,0,1,0-.93l6.53-4.3A.57.57,0,0,0,79.83,10Z" style="fill:#e6e6e6"/></g><g id="eye"><path d="M51.65,52.72A9.35,9.35,0,1,1,61,43.37,9.35,9.35,0,0,1,51.65,52.72Zm0-13.28a3.93,3.93,0,1,0,3.93,3.93A3.93,3.93,0,0,0,51.65,39.44Z" style="fill:#e6e6e6"/><path d="M51.65,34.52a8.85,8.85,0,1,1-8.85,8.85,8.86,8.86,0,0,1,8.85-8.85m0,13.28a4.43,4.43,0,1,0-4.43-4.43,4.44,4.44,0,0,0,4.43,4.43m0-14.28a9.85,9.85,0,1,0,9.85,9.85,9.85,9.85,0,0,0-9.85-9.85Zm0,13.28a3.43,3.43,0,1,1,3.43-3.43,3.42,3.42,0,0,1-3.43,3.43Z" style="fill:#e6e6e6"/></g></g></g></svg>